<svg xmlns="http://www.w3.org/2000/svg" xmlns:xlink="http://www.w3.org/1999/xlink" width="500" zoomAndPan="magnify" viewBox="0 0 375 374.999991" height="500" preserveAspectRatio="xMidYMid meet" version="1.0"><defs><clipPath id="e788724b1d"><path d="M 13.355469 13.355469 L 361.644531 13.355469 L 361.644531 361.644531 L 13.355469 361.644531 Z M 13.355469 13.355469 " clip-rule="nonzero"/></clipPath><clipPath id="1033197e59"><path d="M 187.5 13.355469 C 91.324219 13.355469 13.355469 91.324219 13.355469 187.5 C 13.355469 283.675781 91.324219 361.644531 187.5 361.644531 C 283.675781 361.644531 361.644531 283.675781 361.644531 187.5 C 361.644531 91.324219 283.675781 13.355469 187.5 13.355469 Z M 187.5 13.355469 " clip-rule="nonzero"/></clipPath><clipPath id="62fd744c15"><path d="M 36.972656 37.0625 L 304.476562 37.0625 L 304.476562 337.730469 L 36.972656 337.730469 Z M 36.972656 37.0625 " clip-rule="nonzero"/></clipPath><clipPath id="70bde8cf9a"><path d="M 127.734375 145.28125 L 242 145.28125 L 242 224 L 127.734375 224 Z M 127.734375 145.28125 " clip-rule="nonzero"/></clipPath><clipPath id="485d533ebb"><path d="M 157 199 L 212 199 L 212 229.289062 L 157 229.289062 Z M 157 199 " clip-rule="nonzero"/></clipPath></defs><g clip-path="url(#e788724b1d)"><g clip-path="url(#1033197e59)"><path fill="#000000" d="M 13.355469 13.355469 L 361.644531 13.355469 L 361.644531 361.644531 L 13.355469 361.644531 Z M 13.355469 13.355469 " fill-opacity="1" fill-rule="nonzero"/></g></g><g clip-path="url(#62fd744c15)"><path fill="#ffffff" d="M 187.144531 337.667969 C 104.335938 337.667969 36.972656 270.300781 36.972656 187.496094 C 36.972656 104.695312 104.335938 37.332031 187.144531 37.332031 C 228.878906 37.332031 269.074219 54.914062 297.417969 85.570312 L 305.097656 93.875 L 246.949219 147.648438 L 239.261719 139.339844 C 225.667969 124.632812 207.152344 116.535156 187.144531 116.535156 C 148.007812 116.535156 116.175781 148.371094 116.175781 187.496094 C 116.175781 208.664062 125.566406 228.585938 141.941406 242.15625 L 127.496094 259.578125 C 105.921875 241.695312 93.546875 215.425781 93.546875 187.496094 C 93.546875 135.890625 135.535156 93.90625 187.144531 93.90625 C 209.722656 93.90625 230.847656 101.71875 247.710938 116.117188 L 272.75 92.964844 C 249.417969 71.875 218.804688 59.964844 187.144531 59.964844 C 116.816406 59.964844 59.605469 117.171875 59.605469 187.496094 C 59.605469 257.820312 116.816406 315.035156 187.144531 315.035156 C 213.992188 315.035156 239.691406 306.78125 261.445312 291.164062 C 267.277344 286.984375 272.796875 282.257812 277.878906 277.121094 L 293.976562 293.019531 C 288.007812 299.066406 281.503906 304.628906 274.636719 309.550781 C 249.015625 327.945312 218.761719 337.667969 187.144531 337.667969 " fill-opacity="1" fill-rule="nonzero"/></g><g clip-path="url(#70bde8cf9a)"><path fill="#ffffff" d="M 184.78125 145.445312 L 127.734375 175.472656 L 184.78125 205.496094 L 217.808594 188.796875 C 217.808594 188.796875 217.808594 203.933594 217.808594 211.5 C 217.808594 223.511719 229.820312 223.511719 229.820312 223.511719 L 229.820312 217.507812 C 229.820312 217.507812 223.816406 217.164062 223.816406 211.5 C 223.816406 202.492188 223.816406 185.414062 223.816406 185.414062 L 241.832031 175.472656 Z M 184.78125 145.445312 " fill-opacity="1" fill-rule="nonzero"/></g><g clip-path="url(#485d533ebb)"><path fill="#ffffff" d="M 157.757812 199.492188 L 157.757812 211.5 C 157.757812 214.484375 159.710938 218.480469 163.765625 220.507812 L 184.78125 229.515625 L 202.796875 220.507812 C 206.851562 218.480469 212.089844 214.46875 211.804688 211.5 L 211.804688 199.492188 L 184.78125 212.625 Z M 157.757812 199.492188 " fill-opacity="1" fill-rule="nonzero"/></g></svg>